<?xml version="1.0" encoding="UTF-8" standalone="no"?>
<!-- Created with Inkscape (http://www.inkscape.org/) -->

<svg
   width="11in"
   height="8.5in"
   viewBox="0 0 279.4 215.9"
   version="1.1"
   id="svg4751"
   inkscape:version="1.1.2 (0a00cf5339, 2022-02-04)"
   sodipodi:docname="Morning Mile Certificate - template.svg"
   xml:space="preserve"
   inkscape:export-filename="Morning Mile Certificate fillable.pdf"
   inkscape:export-xdpi="320"
   inkscape:export-ydpi="320"
   xmlns:inkscape="http://www.inkscape.org/namespaces/inkscape"
   xmlns:sodipodi="http://sodipodi.sourceforge.net/DTD/sodipodi-0.dtd"
   xmlns:xlink="http://www.w3.org/1999/xlink"
   xmlns="http://www.w3.org/2000/svg"
   xmlns:svg="http://www.w3.org/2000/svg"><sodipodi:namedview
     id="namedview4753"
     pagecolor="#505050"
     bordercolor="#eeeeee"
     borderopacity="1"
     inkscape:showpageshadow="0"
     inkscape:pageopacity="0"
     inkscape:pagecheckerboard="0"
     inkscape:deskcolor="#505050"
     inkscape:document-units="mm"
     showgrid="false"
     inkscape:zoom="1.0612565"
     inkscape:cx="514.48446"
     inkscape:cy="403.76665"
     inkscape:window-width="1920"
     inkscape:window-height="995"
     inkscape:window-x="0"
     inkscape:window-y="0"
     inkscape:window-maximized="1"
     inkscape:current-layer="layer1"
     inkscape:pageshadow="2" /><defs
     id="defs4748"><linearGradient
       gradientTransform="translate(-147.03274,0.75595235)"
       gradientUnits="userSpaceOnUse"
       y2="319.8909"
       x2="-1553.8171"
       y1="334.254"
       x1="-1572.0776"
       id="linearGradient2019"
       xlink:href="#linearGradient2017"
       inkscape:collect="always" /><linearGradient
       id="linearGradient2017"
       inkscape:collect="always"><stop
         id="stop2013"
         offset="0"
         style="stop-color:#d6ab00;stop-opacity:1" /><stop
         id="stop2015"
         offset="1"
         style="stop-color:#ffdf61;stop-opacity:1" /></linearGradient></defs><g
     inkscape:label="Layer 1"
     inkscape:groupmode="layer"
     id="layer1"><path
       id="rect5618"
       style="opacity:0.544231;fill:#2b8528;fill-opacity:1;stroke:#000000;stroke-width:1;stroke-linecap:round;stroke-linejoin:round"
       d="m 6.0440748,6.176369 v 2.9848307 14.9246703 140.04675 27.68151 14.92467 2.98483 H 9.0289055 227.76491 270.3711 273.35593 V 206.7388 191.81413 51.767385 24.08587 9.1611997 6.176369 H 270.3711 54.462825 9.0289055 Z M 9.0289055,9.1611997 H 20.968745 V 21.101039 H 9.0289055 Z m 14.9246705,0 H 54.462825 255.44643 V 24.08587 H 270.3711 V 51.767385 191.81413 H 255.44643 V 206.7388 H 227.76491 23.953576 V 191.81413 H 9.0289055 V 164.13262 24.08587 H 23.953576 Z m 234.477684,0 H 270.3711 V 21.101039 H 258.43126 Z M 12.013736,12.14603 v 5.970179 h 5.970178 V 12.14603 Z m 14.924671,0 v 2.984831 h 0.02119 l 0.08372,11.848889 -15.029574,0.03566 v 2.984831 134.132379 21.76714 2.98535 l 15.029574,0.0351 -0.08372,11.84889 h -0.02119 v 2.98483 h 2.98483 197.841673 21.71186 2.98483 v -2.98483 h -0.0212 l -0.0837,-11.84889 15.02958,-0.0351 V 185.89976 51.767385 30.000238 27.01489 l -15.02958,-0.03514 0.0837,-11.848889 h 0.0212 V 12.14603 H 249.47677 54.462825 29.923237 Z m 234.478203,0 v 5.970179 h 5.96966 V 12.14603 Z M 29.944425,15.130861 h 24.5184 194.992755 l -0.0842,11.842171 h -0.0212 v 2.984831 0.04237 h 2.98483 l 5.2e-4,-0.03514 12.06593,0.0279 V 51.767385 185.907 l -12.06593,0.0284 -5.2e-4,-0.0357 h -2.98483 v 0.0424 2.98483 h 0.0212 l 0.0842,11.84217 H 227.76491 29.944425 l 0.08423,-11.84217 h 0.02119 v -2.98483 -0.0424 h -2.984831 l -5.17e-4,0.0357 -12.06593,-0.0284 V 164.13262 29.993003 l 12.06593,-0.02842 5.17e-4,0.03566 h 2.984831 v -0.04237 -2.984831 h -0.02119 z M 9.0289055,194.79896 H 20.968745 V 206.7388 H 9.0289055 Z m 249.4023545,0 h 11.93984 v 11.93984 h -11.93984 z m -246.417524,2.98535 v 5.96966 h 5.970178 v -5.96966 z m 249.402874,0 v 5.96966 h 5.96966 v -5.96966 z" /><text
       xml:space="preserve"
       style="font-style:normal;font-variant:normal;font-weight:normal;font-stretch:normal;font-size:17.9917px;line-height:1.25;font-family:'Matura MT Script Capitals';-inkscape-font-specification:'Matura MT Script Capitals, Normal';font-variant-ligatures:normal;font-variant-caps:normal;font-variant-numeric:normal;font-variant-east-asian:normal;stroke-width:0.264583"
       x="30.673639"
       y="45.809914"
       id="text8641"><tspan
         sodipodi:role="line"
         id="tspan8639"
         style="font-style:normal;font-variant:normal;font-weight:normal;font-stretch:normal;font-size:17.9917px;font-family:'Matura MT Script Capitals';-inkscape-font-specification:'Matura MT Script Capitals, Normal';font-variant-ligatures:normal;font-variant-caps:normal;font-variant-numeric:normal;font-variant-east-asian:normal;stroke-width:0.264583"
         x="30.673639"
         y="45.809914">Certificate of Achievement</tspan></text><text
       xml:space="preserve"
       style="font-style:normal;font-variant:normal;font-weight:normal;font-stretch:normal;font-size:7.05556px;line-height:1.25;font-family:'Nimbus Sans';-inkscape-font-specification:'Nimbus Sans, Normal';font-variant-ligatures:normal;font-variant-caps:normal;font-variant-numeric:normal;font-variant-east-asian:normal;text-anchor:middle;stroke-width:0.264583"
       x="139.90326"
       y="63.677223"
       id="text10962"><tspan
         sodipodi:role="line"
         id="tspan10960"
         x="139.90326"
         y="63.677223">This certificate is awarded to</tspan></text><text
       xml:space="preserve"
       style="font-style:normal;font-variant:normal;font-weight:normal;font-stretch:normal;font-size:7.05556px;line-height:1.25;font-family:'Nimbus Sans';-inkscape-font-specification:'Nimbus Sans, Normal';font-variant-ligatures:normal;font-variant-caps:normal;font-variant-numeric:normal;font-variant-east-asian:normal;text-anchor:middle;stroke-width:0.264583"
       x="140.48892"
       y="97.332291"
       id="text10966"><tspan
         sodipodi:role="line"
         style="font-style:normal;font-variant:normal;font-weight:normal;font-stretch:normal;font-size:7.05556px;font-family:'Nimbus Sans';-inkscape-font-specification:'Nimbus Sans, Normal';font-variant-ligatures:normal;font-variant-caps:normal;font-variant-numeric:normal;font-variant-east-asian:normal;text-anchor:middle;stroke-width:0.264583"
         x="140.48892"
         y="97.332291"
         id="tspan10972">in recognition of their participation in the Morning Mile </tspan><tspan
         sodipodi:role="line"
         style="font-style:normal;font-variant:normal;font-weight:normal;font-stretch:normal;font-size:7.05556px;font-family:'Nimbus Sans';-inkscape-font-specification:'Nimbus Sans, Normal';font-variant-ligatures:normal;font-variant-caps:normal;font-variant-numeric:normal;font-variant-east-asian:normal;text-anchor:middle;stroke-width:0.264583"
         x="141.61031"
         y="106.15174"
         id="tspan10974">program during the 2023-2024 school year. </tspan></text><path
       style="fill:none;stroke:#000000;stroke-width:0.264583px;stroke-linecap:butt;stroke-linejoin:miter;stroke-opacity:1"
       d="M 45.827219,83.566221 H 233.57278"
       id="path10992" /><text
       xml:space="preserve"
       style="font-style:normal;font-variant:normal;font-weight:normal;font-stretch:normal;font-size:5.64444px;line-height:1.25;font-family:'Nimbus Sans';-inkscape-font-specification:'Nimbus Sans, Normal';font-variant-ligatures:normal;font-variant-caps:normal;font-variant-numeric:normal;font-variant-east-asian:normal;stroke-width:0.264583"
       x="54.479389"
       y="185.33623"
       id="text10984"><tspan
         sodipodi:role="line"
         id="tspan10982"
         style="font-style:normal;font-variant:normal;font-weight:normal;font-stretch:normal;font-size:5.64444px;font-family:'Nimbus Sans';-inkscape-font-specification:'Nimbus Sans, Normal';font-variant-ligatures:normal;font-variant-caps:normal;font-variant-numeric:normal;font-variant-east-asian:normal;stroke-width:0.264583"
         x="54.479389"
         y="185.33623">Total Miles</tspan></text><path
       style="fill:none;stroke:#000000;stroke-width:0.264583px;stroke-linecap:butt;stroke-linejoin:miter;stroke-opacity:1"
       d="M 41.52174,172.99935 H 96.808525"
       id="path10996"
       sodipodi:nodetypes="cc" /><text
       xml:space="preserve"
       style="font-style:normal;font-variant:normal;font-weight:normal;font-stretch:normal;font-size:5.64444px;line-height:1.25;font-family:'Nimbus Sans';-inkscape-font-specification:'Nimbus Sans, Normal';font-variant-ligatures:normal;font-variant-caps:normal;font-variant-numeric:normal;font-variant-east-asian:normal;stroke-width:0.264583"
       x="183.35309"
       y="183.29697"
       id="text11008"><tspan
         sodipodi:role="line"
         id="tspan11006"
         style="font-style:normal;font-variant:normal;font-weight:normal;font-stretch:normal;font-size:5.64444px;font-family:'Nimbus Sans';-inkscape-font-specification:'Nimbus Sans, Normal';font-variant-ligatures:normal;font-variant-caps:normal;font-variant-numeric:normal;font-variant-east-asian:normal;stroke-width:0.264583"
         x="183.35309"
         y="183.29697">Morning Mile </tspan><tspan
         sodipodi:role="line"
         style="font-style:normal;font-variant:normal;font-weight:normal;font-stretch:normal;font-size:5.64444px;font-family:'Nimbus Sans';-inkscape-font-specification:'Nimbus Sans, Normal';font-variant-ligatures:normal;font-variant-caps:normal;font-variant-numeric:normal;font-variant-east-asian:normal;stroke-width:0.264583"
         x="183.35309"
         y="190.35252"
         id="tspan11012">Representative</tspan></text><path
       style="fill:none;stroke:#000000;stroke-width:0.264582px;stroke-linecap:butt;stroke-linejoin:miter;stroke-opacity:1"
       d="m 171.79922,173.07956 h 64.67949"
       id="path11010"
       sodipodi:nodetypes="cc" /><text
       xml:space="preserve"
       style="font-style:normal;font-variant:normal;font-weight:normal;font-stretch:normal;font-size:8.46667px;line-height:1.25;font-family:'Nimbus Sans';-inkscape-font-specification:'Nimbus Sans, Normal';font-variant-ligatures:normal;font-variant-caps:normal;font-variant-numeric:normal;font-variant-east-asian:normal;text-anchor:middle;stroke-width:0.264583"
       x="139.68761"
       y="128.84972"
       id="text13284"><tspan
         sodipodi:role="line"
         id="tspan13282"
         style="font-style:italic;font-variant:normal;font-weight:normal;font-stretch:normal;font-size:8.46667px;font-family:'Nimbus Sans';-inkscape-font-specification:'Nimbus Sans, Normal';font-variant-ligatures:normal;font-variant-caps:normal;font-variant-numeric:normal;font-variant-east-asian:normal;stroke-width:0.264583"
         x="139.68761"
         y="128.84972">A little a day can take you a long, long, way!</tspan></text><text
       xml:space="preserve"
       style="font-size:11.9944px;line-height:1.25;font-family:'Nimbus Roman';-inkscape-font-specification:'Nimbus Roman, Normal';text-anchor:middle;stroke-width:0.264583;font-weight:normal;font-style:normal;font-stretch:normal;font-variant:normal;font-variant-ligatures:normal;font-variant-caps:normal;font-variant-numeric:normal;font-variant-east-asian:normal"
       x="139.67934"
       y="80.76503"
       id="text388"
       inkscape:export-filename="morning mile certificate plainsvg.svg"
       inkscape:export-xdpi="320"
       inkscape:export-ydpi="320"><tspan
         sodipodi:role="line"
         id="tspan386"
         style="stroke-width:0.264583;-inkscape-font-specification:'Nimbus Roman, Normal';font-family:'Nimbus Roman';font-weight:normal;font-style:normal;font-stretch:normal;font-variant:normal;font-size:11.99444444px;font-variant-ligatures:normal;font-variant-caps:normal;font-variant-numeric:normal;font-variant-east-asian:normal"
         x="139.67934"
         y="80.76503">STUDENTNAME</tspan></text><text
       xml:space="preserve"
       style="font-size:11;text-anchor:middle;line-height:1.25;font-family:'Nimbus Sans';-inkscape-font-specification:'Nimbus Sans, Normal';stroke-width:0.264583;"
       x="68"
       y="168.92686"
       id="text543"><tspan
         sodipodi:role="line"
         id="tspan541"
         style="stroke-width:0.264583"
         x="68"
         y="168.92686">MILES</tspan></text></g><g
     inkscape:groupmode="layer"
     id="layer2"
     inkscape:label="Lionel"><g
       id="g790"
       transform="matrix(0.32560186,0,0,0.32588745,710.45054,79.063667)"
       style="stroke-width:3.06989"><path
         id="path1773"
         d="m -1780.6884,231.29759 50.6488,-17.76489 z"
         style="fill:none;stroke:#000000;stroke-width:0.81224px;stroke-linecap:butt;stroke-linejoin:miter;stroke-opacity:1" /><path
         sodipodi:nodetypes="ccccccccccc"
         id="path2011"
         d="m -1712.0106,322.82615 c 7.9205,-3.19972 10.949,-8.44184 13.5612,-14.11875 0.8843,-6.33787 -0.9194,-10.71176 -10.2308,-10.76561 -3.5278,-0.0582 -5.8179,-0.32569 -7.7851,-4.93547 -2.4498,-7.09446 5.4544,-16.74496 11.5255,-18.80547 l 0.9354,3.70705 c -2.165,3.99041 -11.1963,8.03913 -3.8485,13.61501 8.3606,3.39487 15.3395,2.90413 18.1428,9.75859 2.9368,14.48365 -9.2205,21.30483 -18.811,30.34881 l -11.0491,2.9131 z"
         style="display:inline;fill:url(#linearGradient2019);fill-opacity:1;stroke:#000000;stroke-width:0.81224px;stroke-linecap:butt;stroke-linejoin:miter;stroke-opacity:1" /><g
         transform="translate(-1696.5074,201.76196)"
         id="g1795"
         style="display:inline;stroke-width:3.06989"><path
           style="fill:#fede5f;fill-opacity:1;stroke:#000000;stroke-width:0.81224px;stroke-linecap:butt;stroke-linejoin:miter;stroke-opacity:1"
           d="m -50.22493,85.162659 c 4.351396,4.309555 26.588127,6.594184 27.261492,26.726951 -1.490386,-2.30139 -2.606426,-4.54798 -3.741772,-4.00904 4.597688,5.06884 1.357483,15.16547 1.870885,22.85154 l -37.551368,22.31701 -13.096208,-0.66818 -33.542329,-21.51519 c 0.77629,-7.21997 -4.49741,-14.75836 2.53907,-21.64884 -1.33635,-0.61363 -2.6727,0.85094 -4.00905,3.0736 -2.44707,-9.64668 13.57251,-19.836495 21.916103,-29.800548 z"
           id="path1777"
           sodipodi:nodetypes="ccccccccccc" /><path
           id="path1779"
           style="color:#000000;font-style:normal;font-variant:normal;font-weight:normal;font-stretch:normal;font-size:medium;line-height:normal;font-family:sans-serif;font-variant-ligatures:normal;font-variant-position:normal;font-variant-caps:normal;font-variant-numeric:normal;font-variant-alternates:normal;font-variant-east-asian:normal;font-feature-settings:normal;font-variation-settings:normal;text-indent:0;text-align:start;text-decoration:none;text-decoration-line:none;text-decoration-style:solid;text-decoration-color:#000000;letter-spacing:normal;word-spacing:normal;text-transform:none;writing-mode:lr-tb;direction:ltr;text-orientation:mixed;dominant-baseline:auto;baseline-shift:baseline;text-anchor:start;white-space:normal;shape-padding:0;shape-margin:0;inline-size:0;clip-rule:nonzero;display:inline;overflow:visible;visibility:visible;opacity:1;isolation:auto;mix-blend-mode:normal;color-interpolation:sRGB;color-interpolation-filters:linearRGB;solid-color:#000000;solid-opacity:1;fill:#fede5f;fill-opacity:1;fill-rule:nonzero;stroke:#000000;stroke-width:0.91313;stroke-linecap:butt;stroke-linejoin:miter;stroke-miterlimit:4;stroke-dasharray:none;stroke-dashoffset:0;stroke-opacity:1;color-rendering:auto;image-rendering:auto;shape-rendering:auto;text-rendering:auto;enable-background:accumulate;stop-color:#000000"
           d="m -108.62724,118.4322 c -3.78074,-0.68255 -7.91609,2.96934 -6.23616,6.42464 0.24985,0.51389 0.27049,0.7459 0.41895,1.26998 -1.01844,-0.91697 -2.36192,-1.71625 -3.83905,-1.71625 -3.17107,10e-6 -5.74435,2.80951 -5.74435,5.98059 0,2.10671 1.56182,3.90152 3.25399,4.9018 0.32578,-0.0955 0.69921,0.0433 0.64662,0.0433 -3.17141,-0.001 -6.5448,2.30445 -6.36063,5.88764 0.18208,3.54253 1.39859,4.7121 4.37626,5.17739 1.47265,0.23011 3.60018,-0.14827 4.62135,-1.08011 0.65364,1.01263 1.4066,1.9777 2.22829,2.85667 2.61027,2.79225 5.91633,4.72857 8.94932,4.52944 2.89053,-0.18978 5.53306,-1.29082 7.40213,-3.12539 1.86907,-1.83457 2.957971,-4.40707 2.741952,-7.50755 -0.203521,-2.92091 -1.636345,-7.06265 -3.763595,-10.53114 -0.988567,-1.61189 -2.128857,-3.07674 -3.369817,-4.20337 0.4589,-0.85189 0.71934,-1.82639 0.71934,-2.86132 0,-3.33704 -2.70755,-6.04665 -6.0446,-6.04666 z"
           sodipodi:nodetypes="cscsscssscssssscscc" /><path
           style="fill:#fede5f;fill-opacity:1;stroke:#000000;stroke-width:0.81224px;stroke-linecap:butt;stroke-linejoin:miter;stroke-opacity:1"
           d="m -89.11238,121.15596 c -0.324545,3.76278 -0.792159,7.23289 10e-7,10.77232 1.337073,-2.4001 0.862435,-1.51238 1.511905,-2.07887 -1.00482,2.89782 -0.793323,5.79563 -0.566965,8.69345 -11.61913,0.0998 -12.526761,4.92966 -12.638571,6.11849 0.0233,6.27797 1.408532,9.89305 5.457026,9.37854 -3.160931,-10.13762 2.173788,-12.20979 9.354908,-13.22917 -8.983569,0.59046 -12.487493,5.09252 -9.071428,13.51265 4.544686,4.08791 7.896866,4.47904 9.921874,0.75595 -4.387165,-7.41818 -0.04569,-13.42459 6.992561,-12.09524 -8.334646,-0.82832 -10.813738,4.85266 -6.968937,12.11886 7.763359,5.29996 15.714692,-2.00301 15.851379,-3.04743 1.478598,-11.29794 -1.799665,-21.07263 0.566962,-31.75 z"
           id="path1781"
           sodipodi:nodetypes="cccccccccccscc" /><path
           id="path1783"
           style="opacity:1;fill:#fede5f;fill-opacity:1;stroke:#000000;stroke-width:0.811752;stroke-miterlimit:4;stroke-dasharray:none;stroke-opacity:1"
           d="m -28.291385,114.70524 c -2.600708,-0.73502 -6.115732,2.3791 -6.115698,5.31389 9e-5,0.79434 0.178263,3.71671 0.521415,4.4331 -5.761747,4.24076 -11.236169,11.7333 -10.180363,16.075 0.493771,2.03051 2.185953,4.70068 4.380093,7.4228 1.233646,1.53051 17.474369,-4.66991 21.991423,-10.93783 0.835578,0.62343 2.302321,1.67649 3.55575,1.48482 2.741117,-0.41916 4.4313599,-3.2666 4.4313591,-6.03958 -0.3763471,-5.95047 -3.5081621,-4.64837 -7.1810021,-3.8669 1.101111,-0.18559 3.62554,-1.77743 3.347695,-4.35875 -0.534547,-2.68073 -2.695059,-4.84125 -5.442612,-4.84125 -1.480485,-3e-5 -2.884062,0.65933 -3.829224,1.79885 0.06797,-0.34135 -0.966833,2.78594 -0.966759,2.43788 2.601775,-3.86399 1.342604,-8.10354 -4.512077,-8.92203 z"
           sodipodi:nodetypes="cccsscscccsccc" /><path
           style="fill:#fede5f;fill-opacity:1;stroke:#000000;stroke-width:0.81224px;stroke-linecap:butt;stroke-linejoin:miter;stroke-opacity:1"
           d="m -64.160642,119.23301 c -1.247257,9.17625 -1.336348,17.10525 -0.267269,23.78699 -3.328515,5.02908 -2.744459,11.29906 -1.202714,11.89349 5.42191,5.77823 15.460705,5.92439 15.969356,5.01131 5.781165,-10.37776 -0.983087,-19.28554 -7.898579,-14.86728 8.934971,-4.87782 11.899212,6.18757 8.611914,13.61396 15.878246,4.87527 12.873315,-14.44089 4.265542,-15.70278 5.261165,0.12106 7.440108,7.54758 6.90651,12.21206 3.180228,0.13316 4.684955,-0.98302 5.01941,-2.80633 0.404854,-5.00862 -0.385007,-6.60634 -1.603618,-8.41899 -1.343088,-1.68597 -2.690003,-2.86698 -4.977893,-3.57473 -0.599317,-0.20856 -1.754536,-0.61045 -5.512436,0.23386 l -0.06682,-19.44385 z"
           id="path1785"
           sodipodi:nodetypes="cccscccccccccc" /><path
           style="fill:#fede5f;fill-opacity:1;stroke:#000000;stroke-width:0.81224px;stroke-linecap:butt;stroke-linejoin:miter;stroke-opacity:1"
           d="m -75.221752,89.878421 c -12.700373,2.985252 -24.670761,3.400263 -28.348208,20.458539 1.19026,-1.0873 2.19509,-2.8143 3.21279,-2.69365 0.29007,4.0857 -0.6976,8.33111 0.912516,12.2518 -0.06958,-1.28127 0.158321,-2.44354 0.977365,-3.36936 2.207219,4.17336 4.859949,7.81211 8.838552,9.85981 3.172988,2.21816 16.026596,3.44243 23.8125,-2.1018 1.397992,1.68357 4.044659,2.58672 6.84746,3.39229 8.69171,1.19786 18.505003,-3.23055 22.867559,-8.50447 l 0.166061,1.97963 c 3.411457,-5.95674 4.50476,-11.83904 1.345845,-15.20879 l 2.491235,2.79289 C -31.753703,97.914226 -42.231336,91.65345 -46.68455,91.20134 Z"
           id="path1787"
           sodipodi:nodetypes="cccccccccccccc" /><path
           style="fill:#edf0d5;fill-opacity:1;stroke:#000000;stroke-width:0.81224;stroke-linecap:butt;stroke-linejoin:miter;stroke-miterlimit:4;stroke-dasharray:none;stroke-opacity:1"
           d="m -84.539943,95.980557 33.67596,-0.668173 c 6.263707,1.129036 11.76658,5.989756 11.292137,14.566196 -0.318279,13.43477 -18.279273,15.89459 -25.79151,10.62396 -8.728381,2.46693 -19.978402,6.65942 -28.130116,-6.21402 -2.535931,-3.73445 -1.169426,-14.783082 8.953529,-18.307963 z"
           id="path1789"
           sodipodi:nodetypes="cccccc" /><path
           style="fill:#edf0d5;fill-opacity:1;stroke:#000000;stroke-width:0.81224px;stroke-linecap:butt;stroke-linejoin:miter;stroke-opacity:1"
           d="m -115.05953,140.85104 c 1.65176,5.29544 9.86431,7.16784 12.16076,5.07812 4.871724,-4.43317 2.24678,-10.20555 -2.93996,-14.29892 0.88277,-3.73365 0.0601,-6.09261 -2.40543,-6.1472 -2.34157,0.41352 -4.01322,3.47538 -2.00452,6.81538 -0.97913,-1.97438 -2.48557,-6.02473 -6.94901,-2.6727 -1.48564,1.11572 -0.99754,4.06049 1.60362,5.7463 -3.56359,0 -5.16721,1.42543 -4.81085,4.27631 0.6345,1.55011 1.64158,2.99839 5.34539,1.20271 z"
           id="path1791"
           sodipodi:nodetypes="cscccsccc" /><path
           style="fill:#edf0d5;fill-opacity:1;stroke:#000000;stroke-width:0.81224px;stroke-linecap:butt;stroke-linejoin:miter;stroke-opacity:1"
           d="m -27.796029,130.02662 c 0.787741,-3.57817 -0.139184,-4.89311 -1.823641,-5.49523 -0.975367,-0.18763 -4.627992,-0.0624 -3.119455,4.79464 -1.744061,3.35023 -6.466124,6.49741 -3.208627,10.18866 0.935204,2.07505 9.870462,5.46101 13.764382,-4.14268 1.730748,0.67555 5.096918,1.80918 5.605944,-0.77078 0.457221,-2.32097 -0.322927,-3.53207 -5.739579,-1.76828 1.811768,-1.40578 2.428832,-3.19168 1.469982,-5.47902 -1.260698,-1.74101 -5.292823,-1.35393 -6.949006,2.67269 z"
           id="path1793"
           sodipodi:nodetypes="ccccccccc" /></g><path
         sodipodi:nodetypes="cssccc"
         id="path1797"
         d="m -1706.9242,274.63419 c 2.8946,-6.67691 11.7113,-9.39226 18.2374,-5.76413 3.2263,1.79361 6.4121,4.71621 5.8586,9.26042 -0.8162,6.70134 -5.5227,10.9128 -15.497,12.75669 4.5526,-1.43126 6.9485,-13.57797 -6.7091,-12.37872 z"
         style="display:inline;fill:#654f40;fill-opacity:1;stroke:#000000;stroke-width:0.81224px;stroke-linecap:butt;stroke-linejoin:miter;stroke-opacity:1" /><path
         sodipodi:nodetypes="ccccccccccccscccccccccccccccccccccccccccccc"
         id="path1799"
         d="m -1799.5305,221.06962 -4.917,0.97518 c -3.355,0.90664 -8.4318,3.89285 -11.3323,-0.88122 6.6317,-0.41073 9.0658,-7.69034 13.2436,-12.11656 5.0908,-8.83798 13.3197,-13.57964 22.9182,-16.15541 1.1644,-2.5248 -2.3198,-1.61446 -4.1328,-2.53602 5.229,-2.07266 12.3711,-3.13358 19.5368,-0.28178 1.9971,-0.62443 -0.8817,-2.83459 -1.9725,-4.88419 3.6727,0.44514 4.9794,2.30981 6.1992,4.2267 6.4447,-4.06621 9.7991,-1.26502 14.1829,-0.75141 -3.3068,0.48237 -7.8766,0.38181 -8.1716,2.25425 8.9202,0.24402 24.1628,13.31821 24.7967,19.91247 0,0 -7.9838,18.87929 -8.0777,19.91247 -0.094,1.0332 6.5611,1.26251 16.2493,3.56922 10.3254,4.3552 7.2167,14.91726 12.0226,22.54243 -1.8493,-0.42299 -3.5006,-1.30813 -4.6024,-3.47529 1.8191,6.95216 2.8124,13.86713 1.6907,19.34891 -0.4995,-1.62757 -0.2086,-2.99169 -2.0664,-5.07204 0.3455,2.59864 0.9091,5.19728 -0.1878,7.79592 -0.084,-2.16709 -0.7686,-2.73036 -1.5968,-2.91172 0.4754,9.00595 -5.0032,15.08781 -9.4866,20.85174 0.4289,-2.3693 1.6967,-4.94831 0.2818,-6.85666 -4.9898,5.76398 -7.6322,6.04539 -13.4315,10.70767 0.5086,-1.18976 1.6284,-2.37949 0.7513,-3.56924 -7.1197,4.95534 -15.2091,4.14863 -18.1278,11.553 0.1324,4.78843 1.0344,6.82073 5.4477,8.73521 -4.0744,1.36189 -5.3365,-1.61767 -8.8291,-2.91175 0.123,1.03598 0.2461,2.00486 0.369,3.20491 l 1.9061,1.88994 2.3273,0.82254 c -1.2491,0.48178 -2.4898,0.97862 -4.6024,-0.0939 -1.41,-1.14678 -3.1997,-1.8716 -3.0996,-4.69635 -0.493,-5.09243 -1.8446,-4.60383 -3.0056,-5.35381 -1.1145,2.46739 -1.4194,5.3396 -1.1177,8.5151 -2.9125,-2.93314 -0.5734,-7.74349 -1.3861,-9.69725 -1.7227,-1.79308 -2.3222,-4.07158 -7.3585,-5.39274 -6.0306,-1.68852 -14.7325,-1.48933 -19.9125,-3.7101 -3.831,-1.91475 -12.5026,-5.64418 -16.0615,-13.10278 -1.2893,0.44405 -1.3982,1.56259 -0.9393,3.00565 -3.3984,-5.06943 -6.6526,-10.19533 -4.4145,-17.47038 -0.8061,1.39233 -2.5334,1.11716 -2.1603,4.50848 -2.7487,-3.2982 -0.3586,-31.41892 13.2436,-37.28892 z"
         style="display:inline;fill:#6a4f3b;fill-opacity:1;stroke:#000000;stroke-width:0.807382;stroke-linecap:butt;stroke-linejoin:miter;stroke-miterlimit:4;stroke-dasharray:none;stroke-opacity:1" /><path
         sodipodi:nodetypes="cccccccc"
         id="path1801"
         d="m -1801.7928,216.34926 c 11.0186,-9.62214 21.995,-3.75254 26.8605,6.81538 -2.7896,3.61565 -6.7791,5.86709 -11.0916,8.28535 l -7.4836,-5.87993 7.3499,6.1472 c 0.2548,3.37591 -0.5233,7.67103 -2.4054,10.69078 -1.9849,2.93916 -4.3855,4.00779 -7.0826,3.74178 -11.464,-8.75264 -13.8333,-19.66837 -6.1472,-29.80056 z"
         style="display:inline;fill:#ffdf61;fill-opacity:1;stroke:#000000;stroke-width:0.81352;stroke-linecap:butt;stroke-linejoin:miter;stroke-miterlimit:4;stroke-dasharray:none;stroke-opacity:1" /><path
         style="display:inline;fill:#ffdf61;fill-opacity:1;stroke:#000000;stroke-width:0.81352;stroke-linecap:butt;stroke-linejoin:miter;stroke-miterlimit:4;stroke-dasharray:none;stroke-opacity:1"
         d="m -1724.047,217.28471 c -9.7259,-8.58797 -21.6155,-3.44891 -26.8606,6.81538 2.0246,3.83423 4.5878,8.0777 10.5571,10.0226 l 5.8799,-7.75081 -5.3454,7.61718 c -0.2547,3.37591 6.136,8.3392 8.0181,11.35895 10.1329,-3.50567 16.1738,-21.21747 7.7509,-28.0633 z"
         id="path1803"
         sodipodi:nodetypes="ccccccc" /><path
         sodipodi:nodetypes="ccccccccc"
         id="path1805"
         d="m -1780.5964,231.96812 c 13.1867,-0.0215 20.0255,-3.95206 26.3261,-5.74629 2.4945,8.55081 10.3344,15.02942 12.8289,17.77343 8.2457,9.02997 11.6275,10.76529 12.5617,23.92062 -0.2607,9.01596 -2.3268,18.63366 -12.9626,24.5888 -7.4455,3.43932 -22.8316,7.45542 -39.0214,3.60814 -15.5276,-6.18837 -21.6833,-24.93591 -15.368,-36.8832 2.8375,-5.59764 7.2925,-9.85718 12.9626,-15.10073 3.0966,-3.69723 1.9691,-8.46354 2.6727,-12.16077 z"
         style="display:inline;fill:#fede60;fill-opacity:1;stroke:#000000;stroke-width:0.81352;stroke-linecap:butt;stroke-linejoin:miter;stroke-miterlimit:4;stroke-dasharray:none;stroke-opacity:1" /><ellipse
         ry="2.80633"
         rx="1.2695302"
         cy="242.60355"
         cx="-1767.2539"
         id="ellipse1807"
         style="display:inline;fill:#000000;fill-opacity:1;stroke:none;stroke-width:1.62448;stroke-miterlimit:4;stroke-dasharray:none;stroke-opacity:1" /><ellipse
         style="display:inline;fill:#000000;fill-opacity:1;stroke:none;stroke-width:1.62448;stroke-miterlimit:4;stroke-dasharray:none;stroke-opacity:1"
         id="ellipse1809"
         cx="-1759.7703"
         cy="242.46991"
         rx="1.2695302"
         ry="2.80633" /><path
         sodipodi:nodetypes="cccc"
         id="path1811"
         d="m -1772.0647,262.98285 c 6.2466,0.67846 12.037,0.90081 17.0384,0.33409 -2.4551,2.1744 -4.9204,4.28695 -7.5504,5.4122 -4.3836,-1.77977 -6.5709,-3.80357 -9.488,-5.74629 z"
         style="display:inline;opacity:0.474194;fill:#000000;stroke:none;stroke-width:0.81224px;stroke-linecap:butt;stroke-linejoin:miter;stroke-opacity:1" /><path
         sodipodi:nodetypes="sssss"
         d="m -1752.4342,280.75628 c 0,5.53533 -4.4991,8.48581 -10.0491,8.48581 -5.55,0 -10.0491,-2.95047 -10.0491,-8.48581 0,-5.53533 4.4991,-10.02261 10.0491,-10.02261 5.55,0 10.0491,4.48728 10.0491,10.02261 z"
         style="display:inline;fill:#edf0d5;fill-opacity:1;stroke:#000000;stroke-width:0.81224;stroke-miterlimit:4;stroke-dasharray:none;stroke-opacity:1"
         id="path1813" /><path
         sodipodi:nodetypes="sssss"
         d="m -1762.3094,269.59778 c 1.8326,8.54527 -6.1216,13.98001 -13.5973,13.16302 -6.3292,-0.69168 -12.8403,-5.56342 -12.6619,-12.62848 0.1834,-7.26563 5.1276,-12.30407 11.9269,-11.8935 6.9802,0.4215 12.8699,4.53949 14.3323,11.35896 z"
         style="display:inline;fill:#edf0d5;fill-opacity:1;stroke:#000000;stroke-width:0.81224;stroke-miterlimit:4;stroke-dasharray:none;stroke-opacity:1"
         id="path1815" /><path
         sodipodi:nodetypes="sssss"
         id="path1817"
         style="display:inline;fill:#edf0d5;fill-opacity:1;stroke:#000000;stroke-width:0.81224;stroke-miterlimit:4;stroke-dasharray:none;stroke-opacity:1"
         d="m -1737.3206,270.70027 c -0.8964,6.75715 -3.1439,10.56413 -12.3607,11.45918 -9.4352,0.91625 -13.4812,-5.1258 -13.6303,-11.79327 -0.1226,-5.4775 6.2835,-11.45084 13.1625,-11.99372 7.3655,-0.58127 13.772,5.21644 12.8285,12.32781 z" /><path
         sodipodi:nodetypes="ssccss"
         id="path1819"
         d="m -1764.1135,246.21169 c -4.706,-0.10533 -9.3161,5.8864 -12.428,11.89349 -1.3075,2.52395 2.8171,4.72041 6.2808,5.61266 4.5626,1.16478 8.8478,1.48106 14.8335,-0.20045 2.4944,-0.80184 6.7845,-3.52075 5.7463,-5.54584 -2.4503,-4.77938 -7.4328,-11.6032 -14.4326,-11.75986 z"
         style="display:inline;fill:#fede61;fill-opacity:1;stroke:#000000;stroke-width:0.81224;stroke-linecap:butt;stroke-linejoin:miter;stroke-miterlimit:4;stroke-dasharray:none;stroke-opacity:1" /><ellipse
         transform="scale(-1,1)"
         ry="0.66160679"
         rx="0.54131466"
         cy="266.34177"
         cx="1741.4131"
         id="ellipse1821"
         style="display:inline;fill:#000000;fill-opacity:1;stroke:#000000;stroke-width:1.46229;stroke-miterlimit:4;stroke-dasharray:none;stroke-opacity:1" /><ellipse
         inkscape:transform-center-y="-2.63684"
         inkscape:transform-center-x="-3.9127332"
         style="display:inline;fill:#000000;fill-opacity:1;stroke:#000000;stroke-width:1.46229;stroke-miterlimit:4;stroke-dasharray:none;stroke-opacity:1"
         id="ellipse1823"
         cx="-1777.0709"
         cy="272.50247"
         rx="0.54131466"
         ry="0.66160679" /><ellipse
         ry="0.73499119"
         rx="0.60135645"
         cy="267.75388"
         cx="-1779.7354"
         id="ellipse1825"
         style="display:inline;fill:#000000;fill-opacity:1;stroke:#000000;stroke-width:1.62448;stroke-miterlimit:4;stroke-dasharray:none;stroke-opacity:1"
         inkscape:transform-center-x="-4.3467263"
         inkscape:transform-center-y="-2.9293155" /><ellipse
         transform="scale(-1,1)"
         inkscape:transform-center-y="-2.9293155"
         inkscape:transform-center-x="4.3467263"
         style="display:inline;fill:#000000;fill-opacity:1;stroke:#000000;stroke-width:1.62448;stroke-miterlimit:4;stroke-dasharray:none;stroke-opacity:1"
         id="ellipse1827"
         cx="1745.056"
         cy="267.37592"
         rx="0.60135645"
         ry="0.73499119" /><ellipse
         transform="scale(-1,1)"
         ry="0.66160679"
         rx="0.54131466"
         cy="271.28333"
         cx="1745.3634"
         id="ellipse1829"
         style="display:inline;fill:#000000;fill-opacity:1;stroke:#000000;stroke-width:1.46229;stroke-miterlimit:4;stroke-dasharray:none;stroke-opacity:1"
         inkscape:transform-center-x="3.9127333"
         inkscape:transform-center-y="-2.6368387" /><ellipse
         transform="scale(-1,1)"
         style="display:inline;fill:#000000;fill-opacity:1;stroke:#000000;stroke-width:1.62448;stroke-miterlimit:4;stroke-dasharray:none;stroke-opacity:1"
         id="ellipse1831"
         cx="1741.7487"
         cy="270.58871"
         rx="0.60135645"
         ry="0.73499119" /><ellipse
         transform="scale(-1,1)"
         ry="0.66160679"
         rx="0.54131466"
         cy="274.17416"
         cx="1741.6396"
         id="ellipse1833"
         style="display:inline;fill:#000000;fill-opacity:1;stroke:#000000;stroke-width:1.46229;stroke-miterlimit:4;stroke-dasharray:none;stroke-opacity:1" /><ellipse
         style="display:inline;fill:#000000;fill-opacity:1;stroke:#000000;stroke-width:1.46229;stroke-miterlimit:4;stroke-dasharray:none;stroke-opacity:1"
         id="ellipse1835"
         cx="1782.9401"
         cy="271.56683"
         rx="0.54131466"
         ry="0.66160679"
         transform="scale(-1,1)" /><ellipse
         ry="0.73499119"
         rx="0.60135645"
         cy="274.65195"
         cx="1780.5858"
         id="ellipse1837"
         style="display:inline;fill:#000000;fill-opacity:1;stroke:#000000;stroke-width:1.62448;stroke-miterlimit:4;stroke-dasharray:none;stroke-opacity:1"
         transform="scale(-1,1)" /><ellipse
         style="display:inline;fill:#000000;fill-opacity:1;stroke:#000000;stroke-width:1.31734;stroke-miterlimit:4;stroke-dasharray:none;stroke-opacity:1"
         id="ellipse1839"
         cx="1783.2063"
         cy="266.14749"
         rx="0.48765889"
         ry="0.59602749"
         transform="scale(-1,1)" /><path
         sodipodi:nodetypes="cccccscccscccccc"
         d="m -1783.1857,265.49175 c -0.8597,0.0332 -1.7198,-0.003 -2.5788,-0.0385 -0.92,-0.0429 -1.8411,-0.0353 -2.7618,-0.05 -3.1017,0.19259 -6.0342,0.38781 -8.895,-0.39494 -1.3522,-0.17694 -1.1992,-0.15873 -2.5551,-0.3492 -1.2225,-0.16501 -1.9675,-0.97762 -3.1836,-1.18358 -0.6704,-0.11353 -1.8078,0.38481 -2.4832,0.30718 -0.3018,-0.0422 -0.6019,-0.0364 -0.9035,-0.007 -3.9595,1.64981 1.79,0.0421 3.5212,0.24484 0.8464,0.12069 3.772,1.56224 4.6184,1.68376 1.2742,0.18296 2.5481,0.39576 3.84,0.39065 1.6641,0.0113 3.3287,0.007 4.9921,0.0663 0.9077,0.0314 1.8151,0.0648 2.7234,0.0765 0.8453,0.0211 2.5406,0.008 3.3859,0.0281 l 0.1382,-0.39611 z"
         id="path1841"
         style="display:inline;fill:#000000;fill-opacity:1;stroke:#000000;stroke-width:0.81224;stroke-miterlimit:4;stroke-dasharray:none;stroke-opacity:1" /><path
         sodipodi:nodetypes="ccsscsccccccccsccsccccccc"
         d="m -1784.0115,271.79966 c -0.049,0.0347 -0.097,0.07 -0.1462,0.104 -0.2078,0.14354 -0.1592,0.10792 -0.3858,0.2443 -0.07,0.0418 -0.2785,0.16641 -0.2082,0.12602 0.3131,-0.17973 2.8411,-1.65307 -0.3628,0.21316 2.0476,-1.15349 0.9448,-0.5421 0.4756,-0.31626 -0.3116,0.14999 -0.3216,0.15034 -0.6479,0.29186 -0.4777,0.20529 -0.9581,0.40504 -1.4284,0.62711 -1.2753,0.62932 -2.6431,1.03583 -3.9966,1.45715 -2.0369,0.61418 -3.7529,1.07467 -5.7907,1.68527 -0.8883,0.25379 -2.0917,0.66459 -2.9338,1.04204 -0.5708,0.25171 -1.1639,0.44822 -1.7549,0.64634 -0.5356,0.16753 -1.1297,0.15909 -1.654,0.35862 l -1.5115,0.13446 v 0 c 0,0 1.5952,0.4867 2.1226,0.30945 0.5924,-0.20001 1.1502,-0.3602 1.728,-0.60004 0.1925,-0.0875 0.3823,-0.18097 0.5759,-0.26635 0.6784,-0.29919 1.5985,-0.65925 4.1716,-1.35521 2.0498,-0.63652 2.0397,-0.60166 4.0953,-1.21924 1.306,-0.3904 2.6309,-0.75071 3.8686,-1.33216 0.4761,-0.23028 0.961,-0.44102 1.4471,-0.64935 0.8801,-0.36855 1.7203,-0.78361 2.5231,-1.31277 -2.5478,1.45894 0.4358,-0.20249 1.1127,-0.69696 z"
         id="path1843"
         style="display:inline;fill:#000000;fill-opacity:1;stroke:#000000;stroke-width:0.81224;stroke-miterlimit:4;stroke-dasharray:none;stroke-opacity:1" /><path
         sodipodi:nodetypes="cccsccccccccc"
         d="m -1779.6336,267.70885 c -1.4568,0.42503 -3.3652,0.84845 -4.8713,0.95352 -3.0536,1.19054 -6.1459,0.36804 -9.193,0.51327 -2.1885,0.12823 -4.4006,0.0893 -6.5743,-0.21901 -0.3499,-0.0496 -0.6966,-0.11917 -1.0449,-0.17875 -1.2856,-0.24568 -2.7131,-0.10467 -3.9468,-0.53162 l -0.8533,0.13972 c 1.445,0.35629 1.2176,-0.0127 2.1412,0.15195 1.1739,0.36765 4.102,1.00049 5.2323,1.04767 1.4161,0.0765 2.6216,0.37168 4.0377,0.28359 3.0291,-0.72987 4.0513,-0.10446 7.0936,-0.0596 1.467,-0.0708 5.7814,-1.19708 7.2152,-1.53731 z"
         id="path1845"
         style="display:inline;fill:#000000;fill-opacity:1;stroke:#000000;stroke-width:0.81224;stroke-miterlimit:4;stroke-dasharray:none;stroke-opacity:1" /><path
         sodipodi:nodetypes="scscccccccccccscccccccccccccs"
         d="m -1741.7681,274.92905 c 0.4572,0.13036 0.9146,0.27071 1.325,0.51452 0.1829,0.10872 0.3491,0.25065 0.5494,0.32824 0.1549,0.06 0.3033,0.0905 0.4651,0.13062 0.7857,0.18776 1.5971,0.23206 2.4007,0.28411 0.4929,0.0358 0.9867,0.044 1.4806,0.0458 0.4466,0.0165 0.8886,-0.0493 1.3191,-0.16362 0.4373,-0.16093 0.8986,-0.18152 1.3593,-0.17876 0.424,0.0175 0.8485,0.0289 1.272,0.0555 0.4132,0.0359 0.8321,0.0303 1.2295,0.15939 0.427,0.1811 1.1878,0.1804 1.5547,0.45479 0.4255,0.31578 1.0273,0.57711 1.5064,0.80113 0.2935,0.13273 1.1888,0.30549 1.4716,0.42703 l -0.4609,-0.6706 v 0 c -0.2844,-0.11442 -0.1399,-0.0534 -0.4333,-0.18373 -0.4729,-0.21618 -0.9338,-0.46267 -1.351,-0.77537 -0.3741,-0.28316 -0.715,-0.61807 -1.1389,-0.8283 -0.058,-0.023 -0.1143,-0.0509 -0.174,-0.0691 -0.3485,-0.10614 -0.7241,-0.0625 -1.0804,-0.11842 -0.4278,-0.0399 -0.8587,-0.0345 -1.2877,-0.0554 -0.4596,-0.008 -0.9323,-0.0234 -1.3714,0.13539 -0.4177,0.14178 -0.8576,0.212 -1.2994,0.19982 -0.5003,1.2e-4 -1.0009,-0.002 -1.5009,-0.022 -0.7933,-0.0373 -1.595,-0.0777 -2.3675,-0.2756 -0.3905,-0.10075 -0.8912,0.14248 -1.2183,-0.10034 -0.4129,-0.25659 -1.3064,-0.47443 -1.758,-0.64637 l -0.4917,0.5513 z"
         id="path1847"
         style="display:inline;fill:#000000;fill-opacity:1;stroke:#000000;stroke-width:0.81224;stroke-miterlimit:4;stroke-dasharray:none;stroke-opacity:1" /><path
         sodipodi:nodetypes="sccccccccccccscccccccccccccs"
         d="m -1741.6661,271.20798 c 0.3237,-0.15165 0.6401,-0.31894 0.9804,-0.43033 0.3577,-0.0953 0.728,-0.1188 1.0965,-0.11466 0.6451,0.017 1.2874,0.0588 1.9277,0.13884 0.6775,0.0679 1.3396,0.22493 1.9757,0.4657 0.3791,0.16922 0.7635,0.32081 1.1851,0.33051 0.1366,0.003 0.2731,-0.0109 0.4096,-0.0163 1.0046,-0.11433 1.9849,-0.37701 2.9476,-0.67834 0.7107,-0.21131 1.4091,-0.4542 2.1024,-0.7159 0.9083,-0.32922 1.8103,-0.67088 2.699,-1.05015 0.5629,-0.25734 1.1202,-0.52671 1.7247,-0.66972 0.7474,-0.1284 1.6911,-0.70467 2.4356,-0.58414 0.6608,0.24458 0.7653,0.48218 1.5053,-0.0266 v 0 c -0.379,-0.10409 -0.1858,-0.0591 -0.5799,-0.13417 -0.7484,-0.12256 -1.5109,-0.16932 -2.2668,-0.0853 -0.6276,0.11578 -1.1978,0.40238 -1.7717,0.67205 -0.8842,0.38296 -1.7803,0.73118 -2.6893,1.05126 -0.6985,0.25335 -1.3947,0.51178 -2.1066,0.72697 -0.9508,0.30888 -1.9202,0.57588 -2.9149,0.69699 -0.129,0.008 -0.2577,0.0243 -0.3868,0.0239 -0.411,-10e-4 -1.0361,0.0851 -1.408,-0.0718 -0.6477,-0.24021 -1.4041,-0.37694 -2.0925,-0.4468 -0.6345,-0.0892 -0.9535,-0.28732 -1.5935,-0.31734 -0.3752,-0.0222 -0.617,0.0332 -0.9857,0.11054 -0.348,0.0874 -0.7737,0.10769 -1.101,0.25061 l -1.0929,0.87417 z"
         id="path1849"
         style="display:inline;fill:#000000;fill-opacity:1;stroke:#000000;stroke-width:0.81224;stroke-miterlimit:4;stroke-dasharray:none;stroke-opacity:1" /><path
         sodipodi:nodetypes="sscccccscsscsscccsccsccccccssccs"
         d="m -1741.4866,266.89184 c 0.3222,0.33039 0.8393,0.32085 1.2664,0.30353 0.5953,-0.0241 0.8609,-0.0905 1.463,-0.19253 1.3954,-0.25236 2.7484,-0.68 4.1111,-1.06218 0.7304,-0.18811 1.4603,-0.37953 2.1968,-0.54219 0.6885,-0.0791 1.3472,-0.32141 2.0313,-0.41462 0.094,0.0241 0.1941,0.0306 0.2816,0.0723 0.4696,0.22365 0.7478,0.73661 1.0665,1.11917 0.074,0.0889 0.1562,0.17062 0.2343,0.25594 0.085,0.068 0.1647,0.1439 0.2556,0.20412 0.2402,0.1592 0.6537,0.32962 0.9505,0.31571 0.081,-0.004 0.1596,-0.0262 0.2394,-0.0393 0.093,-0.031 0.188,-0.0581 0.2798,-0.0932 0.2693,-0.10274 0.5312,-0.22379 0.7978,-0.33344 0.3894,-0.16019 0.7825,-0.31017 1.1748,-0.46308 0.4204,-0.15925 0.8453,-0.3056 1.2647,-0.46795 l 1.0905,-0.85566 v 0 c -0.4297,0.16679 -0.8609,0.32807 -1.2928,0.48876 -0.7398,0.29738 -1.4828,0.58701 -2.2198,0.89095 -0.071,0.0212 -0.1403,0.0509 -0.2135,0.0636 -0.2766,0.0482 -1.105,0.25765 -1.3379,0.11829 -0.6999,-0.36761 -0.9887,-0.9105 -1.4637,-1.40097 -0.4208,-0.21417 -0.5469,-0.60864 -0.9407,-0.49744 -0.3702,0.0904 -0.7448,0.16434 -1.1219,0.21977 -0.7522,0.15247 -1.4915,0.35871 -2.2324,0.55816 -1.3693,0.39204 -2.7274,0.83406 -4.1305,1.09464 -0.5891,0.0997 -0.8345,0.16196 -1.415,0.18665 -0.323,0.0137 -0.7464,0.0258 -1.0408,-0.15498 -0.034,-0.0207 -1.8518,-0.52803 -0.9351,0.0111 l -0.36,0.61479 z"
         id="path1851"
         style="display:inline;fill:#000000;fill-opacity:1;stroke:#000000;stroke-width:0.81224;stroke-miterlimit:4;stroke-dasharray:none;stroke-opacity:1" /><path
         sodipodi:nodetypes="ccc"
         d="m -1780.8796,232.15084 c 14.9044,-1.35447 23.7302,-2.62963 30.2814,-8.29541 -8.0064,5.04755 -18.0427,6.38201 -30.2814,8.29541 z"
         id="path1853"
         style="fill:#32251c;fill-opacity:1;stroke:none;stroke-width:0.813518;stroke-miterlimit:4;stroke-dasharray:none;stroke-opacity:1" /></g></g></svg>
